{
  "accessors": [
    {
      "bufferView": 2,
      "componentType": 5126,
      "count": 8727,
      "max": [
        0.2875996232032776,
        0.6157613396644592,
        0.5527396202087402
      ],
      "min": [
        -0.2875996232032776,
        0.0,
        -0.5527395606040955
      ],
      "type": "VEC3"
    },
    {
      "bufferView": 2,
      "byteOffset": 104724,
      "componentType": 5126,
      "count": 8727,
      "max": [
        0.9999809265136719,
        0.9997599720954895,
        0.9984965324401855
      ],
      "min": [
        -0.9999830722808838,
        -0.9999903440475464,
        -0.9995043277740479
      ],
      "type": "VEC3"
    },
    {
      "bufferView": 1,
      "componentType": 5126,
      "count": 8727,
      "max": [
        0.985821545124054,
        0.9923540353775024
      ],
      "min": [
        0.01214759610593319,
        0.011932432651519775
      ],
      "type": "VEC2"
    },
    {
      "bufferView": 1,
      "byteOffset": 69816,
      "componentType": 5126,
      "count": 8727,
      "max": [
        0.985821545124054,
        0.9923540353775024
      ],
      "min": [
        0.01214759610593319,
        0.011932432651519775
      ],
      "type": "VEC2"
    },
    {
      "bufferView": 1,
      "byteOffset": 139632,
      "componentType": 5126,
      "count": 8727,
      "max": [
        0.985821545124054,
        0.9923540353775024
      ],
      "min": [
        0.01214759610593319,
        0.011932432651519775
      ],
      "type": "VEC2"
    },
    {
      "bufferView": 1,
      "byteOffset": 209448,
      "componentType": 5126,
      "count": 8727,
      "max": [
        0.985821545124054,
        0.9923540353775024
      ],
      "min": [
        0.01214759610593319,
        0.011932432651519775
      ],
      "type": "VEC2"
    },
    {
      "bufferView": 1,
      "byteOffset": 279264,
      "componentType": 5126,
      "count": 8727,
      "max": [
        0.985821545124054,
        0.9923540353775024
      ],
      "min": [
        0.01214759610593319,
        0.011932432651519775
      ],
      "type": "VEC2"
    },
    {
      "bufferView": 1,
      "byteOffset": 349080,
      "componentType": 5126,
      "count": 8727,
      "max": [
        0.985821545124054,
        0.9923540353775024
      ],
      "min": [
        0.01214759610593319,
        0.011932432651519775
      ],
      "type": "VEC2"
    },
    {
      "bufferView": 1,
      "byteOffset": 418896,
      "componentType": 5126,
      "count": 8727,
      "max": [
        0.985821545124054,
        0.9923540353775024
      ],
      "min": [
        0.01214759610593319,
        0.011932432651519775
      ],
      "type": "VEC2"
    },
    {
      "bufferView": 1,
      "byteOffset": 488712,
      "componentType": 5126,
      "count": 8727,
      "max": [
        0.985821545124054,
        0.9923540353775024
      ],
      "min": [
        0.01214759610593319,
        0.011932432651519775
      ],
      "type": "VEC2"
    },
    {
      "bufferView": 1,
      "byteOffset": 558528,
      "componentType": 5126,
      "count": 8727,
      "max": [
        0.985821545124054,
        0.9923540353775024
      ],
      "min": [
        0.01214759610593319,
        0.011932432651519775
      ],
      "type": "VEC2"
    },
    {
      "bufferView": 1,
      "byteOffset": 628344,
      "componentType": 5126,
      "count": 8727,
      "max": [
        0.985821545124054,
        0.9923540353775024
      ],
      "min": [
        0.01214759610593319,
        0.011932432651519775
      ],
      "type": "VEC2"
    },
    {
      "bufferView": 2,
      "byteOffset": 209448,
      "componentType": 5126,
      "count": 8727,
      "max": [
        0.01816725730895996,
        0.024389464408159256,
        0.09497040510177612
      ],
      "min": [
        -0.05660833790898323,
        -0.03442488610744476,
        0.0
      ],
      "type": "VEC3"
    },
    {
      "bufferView": 2,
      "byteOffset": 314172,
      "componentType": 5126,
      "count": 8727,
      "max": [
        0.331227570772171,
        0.3035900294780731,
        0.26679727435112
      ],
      "min": [
        -0.4280242919921875,
        -0.40838780999183655,
        -0.5135909914970398
      ],
      "type": "VEC3"
    },
    {
      "bufferView": 2,
      "byteOffset": 418896,
      "componentType": 5126,
      "count": 8727,
      "max": [
        0.0,
        0.003008812665939331,
        0.017311811447143555
      ],
      "min": [
        -0.0525350347161293,
        -0.004626840353012085,
        -0.006269663572311401
      ],
      "type": "VEC3"
    },
    {
      "bufferView": 2,
      "byteOffset": 523620,
      "componentType": 5126,
      "count": 8727,
      "max": [
        0.24484384059906006,
        0.31740880012512207,
        0.5749953389167786
      ],
      "min": [
        -0.22621876001358032,
        -0.43961530923843384,
        -0.5246084928512573
      ],
      "type": "VEC3"
    },
    {
      "bufferView": 2,
      "byteOffset": 628344,
      "componentType": 5126,
      "count": 8727,
      "max": [
        0.01524190604686737,
        0.001444116234779358,
        0.033240318298339844
      ],
      "min": [
        -0.004416793584823608,
        -0.04536402225494385,
        0.0
      ],
      "type": "VEC3"
    },
    {
      "bufferView": 2,
      "byteOffset": 733068,
      "componentType": 5126,
      "count": 8727,
      "max": [
        0.18489855527877808,
        0.20770418643951416,
        0.15586966276168823
      ],
      "min": [
        -0.16799725592136383,
        -0.1962844431400299,
        -0.21520262956619263
      ],
      "type": "VEC3"
    },
    {
      "bufferView": 2,
      "byteOffset": 837792,
      "componentType": 5126,
      "count": 8727,
      "max": [
        0.022203579545021057,
        0.05717507004737854,
        0.0419287234544754
      ],
      "min": [
        -1.4901161193847656e-08,
        0.0,
        0.0
      ],
      "type": "VEC3"
    },
    {
      "bufferView": 2,
      "byteOffset": 942516,
      "componentType": 5126,
      "count": 8727,
      "max": [
        1.133033275604248,
        1.4530023336410522,
        0.45470255613327026
      ],
      "min": [
        -1.1518981456756592,
        -1.0723135471343994,
        -0.8447263240814209
      ],
      "type": "VEC3"
    },
    {
      "bufferView": 2,
      "byteOffset": 1047240,
      "componentType": 5126,
      "count": 8727,
      "max": [
        0.010268647223711014,
        0.013159677386283875,
        0.01003997027873993
      ],
      "min": [
        -0.010010100901126862,
        -0.018127769231796265,
        -0.010414347052574158
      ],
      "type": "VEC3"
    },
    {
      "bufferView": 2,
      "byteOffset": 1151964,
      "componentType": 5126,
      "count": 8727,
      "max": [
        0.03569750487804413,
        0.05060156434774399,
        0.03579914569854736
      ],
      "min": [
        -0.03559965640306473,
        -0.050598666071891785,
        -0.03599739074707031
      ],
      "type": "VEC3"
    },
    {
      "bufferView": 0,
      "componentType": 5125,
      "count": 49563,
      "type": "SCALAR"
    },
    {
      "bufferView": 3,
      "componentType": 5126,
      "count": 250,
      "max": [
        10.416666984558105
      ],
      "min": [
        0.0416666679084301
      ],
      "type": "SCALAR"
    },
    {
      "bufferView": 3,
      "byteOffset": 1000,
      "componentType": 5126,
      "count": 1250,
      "max": [
        1.0
      ],
      "min": [
        0.0
      ],
      "type": "SCALAR"
    }
  ],
  "animations": [
    {
      "channels": [
        {
          "sampler": 0,
          "target": {
            "node": 4,
            "path": "weights"
          }
        }
      ],
      "name": "Animation",
      "samplers": [
        {
          "input": 23,
          "interpolation": "LINEAR",
          "output": 24
        }
      ]
    }
  ],
  "asset": {
    "extras": {
      "author": "kenchoo (https://sketchfab.com/kenchoo)",
      "license": "CC-BY-4.0 (http://creativecommons.org/licenses/by/4.0/)",
      "source": "https://sketchfab.com/3d-models/basical-snail-6f0127a9cd314d9aaa3ae93dab1aaf3d",
      "title": "Basical_snail"
    },
    "generator": "Sketchfab-15.71.0",
    "version": "2.0"
  },
  "bufferViews": [
    {
      "buffer": 0,
      "byteLength": 198252,
      "name": "floatBufferViews",
      "target": 34963
    },
    {
      "buffer": 0,
      "byteLength": 698160,
      "byteOffset": 198252,
      "byteStride": 8,
      "name": "floatBufferViews",
      "target": 34962
    },
    {
      "buffer": 0,
      "byteLength": 1256688,
      "byteOffset": 896412,
      "byteStride": 12,
      "name": "floatBufferViews",
      "target": 34962
    },
    {
      "buffer": 0,
      "byteLength": 6000,
      "byteOffset": 2153100,
      "name": "floatBufferViews"
    }
  ],
  "buffers": [
    {
      "byteLength": 2159100,
      "uri": ".bin"
    }
  ],
  "images": [
    {
      "uri": "textures/Material_72_baseColor.png"
    }
  ],
  "materials": [
    {
      "doubleSided": true,
      "name": "Material_72",
      "pbrMetallicRoughness": {
        "baseColorTexture": {
          "index": 0
        },
        "metallicFactor": 0.0,
        "roughnessFactor": 0.0
      }
    }
  ],
  "meshes": [
    {
      "name": "mesh_0",
      "primitives": [
        {
          "attributes": {
            "NORMAL": 1,
            "POSITION": 0,
            "TEXCOORD_0": 2,
            "TEXCOORD_1": 3,
            "TEXCOORD_2": 4,
            "TEXCOORD_3": 5,
            "TEXCOORD_4": 6,
            "TEXCOORD_5": 7,
            "TEXCOORD_6": 8,
            "TEXCOORD_7": 9,
            "TEXCOORD_8": 10,
            "TEXCOORD_9": 11
          },
          "indices": 22,
          "material": 0,
          "mode": 4,
          "targets": [
            {
              "NORMAL": 13,
              "POSITION": 12
            },
            {
              "NORMAL": 15,
              "POSITION": 14
            },
            {
              "NORMAL": 17,
              "POSITION": 16
            },
            {
              "NORMAL": 19,
              "POSITION": 18
            },
            {
              "NORMAL": 21,
              "POSITION": 20
            }
          ]
        }
      ],
      "weights": [
        0.0,
        0.0,
        0.0,
        0.0,
        0.0
      ]
    }
  ],
  "nodes": [
    {
      "children": [
        1
      ],
      "matrix": [
        1.0,
        0.0,
        0.0,
        0.0,
        0.0,
        2.220446049250313e-16,
        -1.0,
        0.0,
        0.0,
        1.0,
        2.220446049250313e-16,
        0.0,
        0.0,
        0.0,
        0.0,
        1.0
      ],
      "name": "Sketchfab_model"
    },
    {
      "children": [
        2
      ],
      "name": "root"
    },
    {
      "children": [
        3
      ],
      "matrix": [
        1.0,
        0.0,
        0.0,
        0.0,
        0.0,
        2.220446049250313e-16,
        1.0,
        0.0,
        0.0,
        -1.0,
        2.220446049250313e-16,
        0.0,
        0.0,
        0.0,
        0.0,
        1.0
      ],
      "name": "GLTF_SceneRootNode"
    },
    {
      "children": [
        4
      ],
      "name": "node_id51_Material_72_0_0"
    },
    {
      "mesh": 0,
      "name": "mesh_0"
    }
  ],
  "samplers": [
    {
      "magFilter": 9729,
      "minFilter": 9987,
      "wrapS": 10497,
      "wrapT": 10497
    }
  ],
  "scene": 0,
  "scenes": [
    {
      "name": "Sketchfab_Scene",
      "nodes": [
        0
      ]
    }
  ],
  "textures": [
    {
      "sampler": 0,
      "source": 0
    }
  ]
}
