{
  "accessors": [
    {
      "bufferView": 2,
      "componentType": 5126,
      "count": 4720,
      "max": [
        3.2912118434906006,
        2.8122286796569824,
        2.4356706142425537
      ],
      "min": [
        -3.2912614345550537,
        -0.07748866081237793,
        -2.646806240081787
      ],
      "type": "VEC3"
    },
    {
      "bufferView": 2,
      "byteOffset": 56640,
      "componentType": 5126,
      "count": 4720,
      "max": [
        1.0,
        0.9999997615814209,
        0.9996874928474426
      ],
      "min": [
        -1.0,
        -0.9998612403869629,
        -0.9947846531867981
      ],
      "type": "VEC3"
    },
    {
      "bufferView": 3,
      "componentType": 5126,
      "count": 4720,
      "max": [
        0.999943196773529,
        0.9972842335700989,
        0.9998800754547119,
        1.0
      ],
      "min": [
        -0.9998498558998108,
        -0.9992948174476624,
        -0.998752236366272,
        -1.0
      ],
      "type": "VEC4"
    },
    {
      "bufferView": 1,
      "componentType": 5126,
      "count": 4720,
      "max": [
        1.0,
        1.0
      ],
      "min": [
        0.0,
        0.0
      ],
      "type": "VEC2"
    },
    {
      "bufferView": 1,
      "byteOffset": 37760,
      "componentType": 5126,
      "count": 4720,
      "max": [
        1.0,
        1.0
      ],
      "min": [
        0.0,
        0.0
      ],
      "type": "VEC2"
    },
    {
      "bufferView": 1,
      "byteOffset": 75520,
      "componentType": 5126,
      "count": 4720,
      "max": [
        1.0,
        1.0
      ],
      "min": [
        0.0,
        0.0
      ],
      "type": "VEC2"
    },
    {
      "bufferView": 1,
      "byteOffset": 113280,
      "componentType": 5126,
      "count": 4720,
      "max": [
        1.0,
        1.0
      ],
      "min": [
        0.0,
        0.0
      ],
      "type": "VEC2"
    },
    {
      "bufferView": 2,
      "byteOffset": 113280,
      "componentType": 5126,
      "count": 4720,
      "max": [
        0.08193540573120117,
        0.017888307571411133,
        0.04537510871887207
      ],
      "min": [
        -0.08193445205688477,
        -0.06823992729187012,
        -0.0017788410186767578
      ],
      "type": "VEC3"
    },
    {
      "bufferView": 2,
      "byteOffset": 169920,
      "componentType": 5126,
      "count": 4720,
      "max": [
        0.12019244581460953,
        0.11609834432601929,
        0.1304008662700653
      ],
      "min": [
        -0.12019244581460953,
        -0.08850592374801636,
        -0.17879649996757507
      ],
      "type": "VEC3"
    },
    {
      "bufferView": 2,
      "byteOffset": 226560,
      "componentType": 5126,
      "count": 4720,
      "max": [
        0.07112705707550049,
        0.21668970584869385,
        0.03144258260726929
      ],
      "min": [
        -0.14682714641094208,
        -0.08102130889892578,
        -0.031287312507629395
      ],
      "type": "VEC3"
    },
    {
      "bufferView": 2,
      "byteOffset": 283200,
      "componentType": 5126,
      "count": 4720,
      "max": [
        0.16763034462928772,
        0.18479831516742706,
        0.2599989175796509
      ],
      "min": [
        -0.16529768705368042,
        -0.16310080885887146,
        -0.21530812978744507
      ],
      "type": "VEC3"
    },
    {
      "bufferView": 2,
      "byteOffset": 339840,
      "componentType": 5126,
      "count": 4720,
      "max": [
        0.1605866551399231,
        0.24277877807617188,
        0.004267334938049316
      ],
      "min": [
        -0.1605866551399231,
        -0.2665739059448242,
        -0.002190828323364258
      ],
      "type": "VEC3"
    },
    {
      "bufferView": 2,
      "byteOffset": 396480,
      "componentType": 5126,
      "count": 4720,
      "max": [
        1.1550207138061523,
        0.721737802028656,
        0.7608904838562012
      ],
      "min": [
        -1.1550207138061523,
        -0.952129602432251,
        -1.0144829750061035
      ],
      "type": "VEC3"
    },
    {
      "bufferView": 0,
      "componentType": 5125,
      "count": 23535,
      "type": "SCALAR"
    },
    {
      "bufferView": 4,
      "componentType": 5126,
      "count": 251,
      "max": [
        10.416666984558105
      ],
      "min": [
        0.0
      ],
      "type": "SCALAR"
    },
    {
      "bufferView": 4,
      "byteOffset": 1004,
      "componentType": 5126,
      "count": 753,
      "max": [
        1.0
      ],
      "min": [
        0.0
      ],
      "type": "SCALAR"
    }
  ],
  "animations": [
    {
      "channels": [
        {
          "sampler": 0,
          "target": {
            "node": 4,
            "path": "weights"
          }
        }
      ],
      "name": "Animation",
      "samplers": [
        {
          "input": 14,
          "interpolation": "LINEAR",
          "output": 15
        }
      ]
    }
  ],
  "asset": {
    "extras": {
      "author": "kenchoo (https://sketchfab.com/kenchoo)",
      "license": "CC-BY-NC-ND-4.0 (http://creativecommons.org/licenses/by-nc-nd/4.0/)",
      "source": "https://sketchfab.com/3d-models/frog-gold-a9569eab107c4fafa9dd590341ed439e",
      "title": "Frog Gold"
    },
    "generator": "Sketchfab-16.7.0",
    "version": "2.0"
  },
  "bufferViews": [
    {
      "buffer": 0,
      "byteLength": 94140,
      "name": "floatBufferViews",
      "target": 34963
    },
    {
      "buffer": 0,
      "byteLength": 151040,
      "byteOffset": 94140,
      "byteStride": 8,
      "name": "floatBufferViews",
      "target": 34962
    },
    {
      "buffer": 0,
      "byteLength": 453120,
      "byteOffset": 245180,
      "byteStride": 12,
      "name": "floatBufferViews",
      "target": 34962
    },
    {
      "buffer": 0,
      "byteLength": 75520,
      "byteOffset": 698300,
      "byteStride": 16,
      "name": "floatBufferViews",
      "target": 34962
    },
    {
      "buffer": 0,
      "byteLength": 4016,
      "byteOffset": 773820,
      "name": "floatBufferViews"
    }
  ],
  "buffers": [
    {
      "byteLength": 777836,
      "uri": "scene.bin"
    }
  ],
  "extensionsUsed": [
    "KHR_materials_specular"
  ],
  "images": [
    {
      "uri": "textures/Material_001_baseColor.jpeg"
    },
    {
      "uri": "textures/Material_001_metallicRoughness.png"
    },
    {
      "uri": "textures/Material_001_normal.png"
    }
  ],
  "materials": [
    {
      "doubleSided": true,
      "extensions": {
        "KHR_materials_specular": {
          "specularColorFactor": [
            1.0,
            1.0,
            1.0
          ],
          "specularFactor": 1.0
        }
      },
      "name": "Material_001",
      "normalTexture": {
        "index": 2,
        "texCoord": 2
      },
      "pbrMetallicRoughness": {
        "baseColorTexture": {
          "index": 0
        },
        "metallicFactor": 0.0945455,
        "metallicRoughnessTexture": {
          "index": 1,
          "texCoord": 1
        }
      }
    }
  ],
  "meshes": [
    {
      "name": "mesh_0",
      "primitives": [
        {
          "attributes": {
            "NORMAL": 1,
            "POSITION": 0,
            "TANGENT": 2,
            "TEXCOORD_0": 3,
            "TEXCOORD_1": 4,
            "TEXCOORD_2": 5,
            "TEXCOORD_3": 6
          },
          "indices": 13,
          "material": 0,
          "mode": 4,
          "targets": [
            {
              "NORMAL": 8,
              "POSITION": 7
            },
            {
              "NORMAL": 10,
              "POSITION": 9
            },
            {
              "NORMAL": 12,
              "POSITION": 11
            }
          ]
        }
      ],
      "weights": [
        0.0,
        0.0,
        0.0
      ]
    }
  ],
  "nodes": [
    {
      "children": [
        1
      ],
      "matrix": [
        1.0,
        0.0,
        0.0,
        0.0,
        0.0,
        2.220446049250313e-16,
        -1.0,
        0.0,
        0.0,
        1.0,
        2.220446049250313e-16,
        0.0,
        0.0,
        0.0,
        0.0,
        1.0
      ],
      "name": "Sketchfab_model"
    },
    {
      "children": [
        2
      ],
      "name": "root"
    },
    {
      "children": [
        3
      ],
      "matrix": [
        1.0,
        0.0,
        0.0,
        0.0,
        0.0,
        2.220446049250313e-16,
        1.0,
        0.0,
        0.0,
        -1.0,
        2.220446049250313e-16,
        0.0,
        0.0,
        0.0,
        0.0,
        1.0
      ],
      "name": "GLTF_SceneRootNode"
    },
    {
      "children": [
        4
      ],
      "name": "Object_0_0"
    },
    {
      "mesh": 0,
      "name": "mesh_0"
    }
  ],
  "samplers": [
    {
      "magFilter": 9729,
      "minFilter": 9987,
      "wrapS": 10497,
      "wrapT": 10497
    }
  ],
  "scene": 0,
  "scenes": [
    {
      "name": "Sketchfab_Scene",
      "nodes": [
        0
      ]
    }
  ],
  "textures": [
    {
      "sampler": 0,
      "source": 0
    },
    {
      "sampler": 0,
      "source": 1
    },
    {
      "sampler": 0,
      "source": 2
    }
  ]
}
