{
  "accessors": [
    {
      "bufferView": 2,
      "componentType": 5126,
      "count": 30572,
      "max": [
        3.9738025665283203,
        3.293004274368286,
        4.036214828491211
      ],
      "min": [
        -3.811168909072876,
        -0.043562568724155426,
        -4.246215343475342
      ],
      "type": "VEC3"
    },
    {
      "bufferView": 2,
      "byteOffset": 366864,
      "componentType": 5126,
      "count": 30572,
      "max": [
        0.9999635815620422,
        0.9999872446060181,
        0.9999184012413025
      ],
      "min": [
        -0.9999951720237732,
        -0.9999879598617554,
        -0.9997327923774719
      ],
      "type": "VEC3"
    },
    {
      "bufferView": 1,
      "componentType": 5126,
      "count": 30572,
      "max": [
        0.9951795935630798,
        0.9958928823471069
      ],
      "min": [
        0.0051534175872802734,
        0.008579850196838379
      ],
      "type": "VEC2"
    },
    {
      "bufferView": 1,
      "byteOffset": 244576,
      "componentType": 5126,
      "count": 30572,
      "max": [
        0.9951795935630798,
        0.9958928823471069
      ],
      "min": [
        0.0051534175872802734,
        0.008579850196838379
      ],
      "type": "VEC2"
    },
    {
      "bufferView": 1,
      "byteOffset": 489152,
      "componentType": 5126,
      "count": 30572,
      "max": [
        0.9951795935630798,
        0.9958928823471069
      ],
      "min": [
        0.0051534175872802734,
        0.008579850196838379
      ],
      "type": "VEC2"
    },
    {
      "bufferView": 0,
      "componentType": 5125,
      "count": 176736,
      "type": "SCALAR"
    }
  ],
  "asset": {
    "extras": {
      "author": "nathaniel (https://sketchfab.com/Xfdfgd)",
      "license": "CC-BY-4.0 (http://creativecommons.org/licenses/by/4.0/)",
      "source": "https://sketchfab.com/3d-models/octpus-a08c12ad3a374a63a95ec577a69a3829",
      "title": "Octpus"
    },
    "generator": "Sketchfab-15.10.0",
    "version": "2.0"
  },
  "bufferViews": [
    {
      "buffer": 0,
      "byteLength": 706944,
      "name": "floatBufferViews",
      "target": 34963
    },
    {
      "buffer": 0,
      "byteLength": 733728,
      "byteOffset": 706944,
      "byteStride": 8,
      "name": "floatBufferViews",
      "target": 34962
    },
    {
      "buffer": 0,
      "byteLength": 733728,
      "byteOffset": 1440672,
      "byteStride": 12,
      "name": "floatBufferViews",
      "target": 34962
    }
  ],
  "buffers": [
    {
      "byteLength": 2174400,
      "uri": "scene.bin"
    }
  ],
  "extensionsRequired": [
    "KHR_materials_pbrSpecularGlossiness"
  ],
  "extensionsUsed": [
    "KHR_materials_pbrSpecularGlossiness"
  ],
  "images": [
    {
      "uri": "textures/material_diffuse.png"
    },
    {
      "uri": "textures/material_specularGlossiness.png"
    }
  ],
  "materials": [
    {
      "doubleSided": true,
      "extensions": {
        "KHR_materials_pbrSpecularGlossiness": {
          "diffuseFactor": [
            1.0,
            1.0,
            1.0,
            1.0
          ],
          "diffuseTexture": {
            "index": 0
          },
          "glossinessFactor": 1.0,
          "specularFactor": [
            1.0,
            1.0,
            1.0
          ],
          "specularGlossinessTexture": {
            "index": 1
          }
        }
      },
      "name": "material"
    }
  ],
  "meshes": [
    {
      "name": "Object_0",
      "primitives": [
        {
          "attributes": {
            "NORMAL": 1,
            "POSITION": 0,
            "TEXCOORD_0": 2,
            "TEXCOORD_1": 3,
            "TEXCOORD_2": 4
          },
          "indices": 5,
          "material": 0,
          "mode": 4
        }
      ]
    }
  ],
  "nodes": [
    {
      "children": [
        1
      ],
      "matrix": [
        1.0,
        0.0,
        0.0,
        0.0,
        0.0,
        2.220446049250313e-16,
        -1.0,
        0.0,
        0.0,
        1.0,
        2.220446049250313e-16,
        0.0,
        0.0,
        0.0,
        0.0,
        1.0
      ],
      "name": "Sketchfab_model"
    },
    {
      "children": [
        2
      ],
      "name": "root"
    },
    {
      "children": [
        3
      ],
      "matrix": [
        1.0,
        0.0,
        0.0,
        0.0,
        0.0,
        2.220446049250313e-16,
        1.0,
        0.0,
        0.0,
        -1.0,
        2.220446049250313e-16,
        0.0,
        0.0,
        0.0,
        0.0,
        1.0
      ],
      "name": "GLTF_SceneRootNode"
    },
    {
      "children": [
        4
      ],
      "name": "root_0"
    },
    {
      "children": [
        5
      ],
      "matrix": [
        0.12289128452539444,
        0.0,
        0.0,
        0.0,
        0.0,
        0.12289128452539444,
        0.0,
        0.0,
        0.0,
        0.0,
        0.12289128452539444,
        0.0,
        -0.006120248232036829,
        -0.17564657330513,
        0.04870046302676201,
        1.0
      ],
      "name": "node_id74_1"
    },
    {
      "mesh": 0,
      "name": "Object_5"
    }
  ],
  "samplers": [
    {
      "magFilter": 9729,
      "minFilter": 9987,
      "wrapS": 10497,
      "wrapT": 10497
    }
  ],
  "scene": 0,
  "scenes": [
    {
      "name": "Sketchfab_Scene",
      "nodes": [
        0
      ]
    }
  ],
  "textures": [
    {
      "sampler": 0,
      "source": 0
    },
    {
      "sampler": 0,
      "source": 1
    }
  ]
}
